<?xml version="1.0" encoding="UTF-8"?>
<mxfile host="app.diagrams.net" modified="2024-01-01T00:00:00.000Z" agent="5.0" etag="" version="22.0.0" type="device">
  <diagram id="trasel-process" name="Processos TraselFramework">
    <mxGraphModel dx="1422" dy="794" grid="1" gridSize="10" guides="1" tooltips="1" connect="1" arrows="1" fold="1" page="1" pageScale="1" pageWidth="1169" pageHeight="827" math="0" shadow="0">
      <root>
        <mxCell id="0" />
        <mxCell id="1" parent="0" />
        
        <!-- Título -->
        <mxCell id="title" value="TraselFramework - Fluxo de Processos" style="text;html=1;strokeColor=none;fillColor=none;align=center;verticalAlign=middle;whiteSpace=wrap;rounded=0;fontSize=20;fontStyle=1;" vertex="1" parent="1">
          <mxGeometry x="400" y="20" width="350" height="40" as="geometry" />
        </mxCell>

        <!-- Início -->
        <mxCell id="start" value="Início&#xa;Requisição HTTP" style="ellipse;whiteSpace=wrap;html=1;fillColor=#d5e8d4;strokeColor=#82b366;fontSize=12;fontStyle=1;" vertex="1" parent="1">
          <mxGeometry x="40" y="100" width="120" height="60" as="geometry" />
        </mxCell>

        <!-- Index.php -->
        <mxCell id="index-process" value="index.php&#xa;carrega autoloader&#xa;e configurações" style="rounded=1;whiteSpace=wrap;html=1;fillColor=#ffe6cc;strokeColor=#d79b00;fontSize=11;" vertex="1" parent="1">
          <mxGeometry x="240" y="100" width="120" height="60" as="geometry" />
        </mxCell>

        <!-- Parse URL -->
        <mxCell id="parse-url" value="Router&#xa;analisa URL&#xa;e método HTTP" style="rounded=1;whiteSpace=wrap;html=1;fillColor=#f8cecc;strokeColor=#b85450;fontSize=11;" vertex="1" parent="1">
          <mxGeometry x="440" y="100" width="120" height="60" as="geometry" />
        </mxCell>

        <!-- Match Route Decision -->
        <mxCell id="match-route" value="Rota&#xa;encontrada?" style="rhombus;whiteSpace=wrap;html=1;fillColor=#fff2cc;strokeColor=#d6b656;fontSize=11;" vertex="1" parent="1">
          <mxGeometry x="640" y="100" width="100" height="60" as="geometry" />
        </mxCell>

        <!-- 404 Error -->
        <mxCell id="error-404" value="Erro 404&#xa;Página não encontrada" style="rounded=1;whiteSpace=wrap;html=1;fillColor=#ffcccc;strokeColor=#cc0000;fontSize=11;" vertex="1" parent="1">
          <mxGeometry x="820" y="100" width="120" height="60" as="geometry" />
        </mxCell>

        <!-- Load Controller -->
        <mxCell id="load-controller" value="Carregar&#xa;Controller&#xa;correspondente" style="rounded=1;whiteSpace=wrap;html=1;fillColor=#d5e8d4;strokeColor=#82b366;fontSize=11;" vertex="1" parent="1">
          <mxGeometry x="640" y="240" width="120" height="60" as="geometry" />
        </mxCell>

        <!-- Execute Method -->
        <mxCell id="execute-method" value="Executar método&#xa;do Controller" style="rounded=1;whiteSpace=wrap;html=1;fillColor=#d5e8d4;strokeColor=#82b366;fontSize=11;" vertex="1" parent="1">
          <mxGeometry x="440" y="240" width="120" height="60" as="geometry" />
        </mxCell>

        <!-- Need Data Decision -->
        <mxCell id="need-data" value="Precisa de&#xa;dados?" style="rhombus;whiteSpace=wrap;html=1;fillColor=#fff2cc;strokeColor=#d6b656;fontSize=11;" vertex="1" parent="1">
          <mxGeometry x="240" y="240" width="100" height="60" as="geometry" />
        </mxCell>

        <!-- Load Model -->
        <mxCell id="load-model" value="Carregar Model&#xa;e buscar dados" style="rounded=1;whiteSpace=wrap;html=1;fillColor=#e1d5e7;strokeColor=#9673a6;fontSize=11;" vertex="1" parent="1">
          <mxGeometry x="40" y="240" width="120" height="60" as="geometry" />
        </mxCell>

        <!-- Database Query -->
        <mxCell id="db-query" value="Consulta ao&#xa;PostgreSQL" style="rounded=1;whiteSpace=wrap;html=1;fillColor=#fff2cc;strokeColor=#d6b656;fontSize=11;" vertex="1" parent="1">
          <mxGeometry x="40" y="380" width="120" height="60" as="geometry" />
        </mxCell>

        <!-- Process Data -->
        <mxCell id="process-data" value="Processar&#xa;e validar dados" style="rounded=1;whiteSpace=wrap;html=1;fillColor=#e1d5e7;strokeColor=#9673a6;fontSize=11;" vertex="1" parent="1">
          <mxGeometry x="240" y="380" width="120" height="60" as="geometry" />
        </mxCell>

        <!-- Prepare View -->
        <mxCell id="prepare-view" value="Preparar dados&#xa;para a View" style="rounded=1;whiteSpace=wrap;html=1;fillColor=#d5e8d4;strokeColor=#82b366;fontSize=11;" vertex="1" parent="1">
          <mxGeometry x="440" y="380" width="120" height="60" as="geometry" />
        </mxCell>

        <!-- Load View -->
        <mxCell id="load-view" value="Carregar&#xa;template da View" style="rounded=1;whiteSpace=wrap;html=1;fillColor=#f0f0f0;strokeColor=#666666;fontSize=11;" vertex="1" parent="1">
          <mxGeometry x="640" y="380" width="120" height="60" as="geometry" />
        </mxCell>

        <!-- Render HTML -->
        <mxCell id="render-html" value="Renderizar HTML&#xa;com dados" style="rounded=1;whiteSpace=wrap;html=1;fillColor=#f0f0f0;strokeColor=#666666;fontSize=11;" vertex="1" parent="1">
          <mxGeometry x="820" y="380" width="120" height="60" as="geometry" />
        </mxCell>

        <!-- Send Response -->
        <mxCell id="send-response" value="Enviar resposta&#xa;HTTP ao cliente" style="rounded=1;whiteSpace=wrap;html=1;fillColor=#dae8fc;strokeColor=#6c8ebf;fontSize=11;" vertex="1" parent="1">
          <mxGeometry x="820" y="520" width="120" height="60" as="geometry" />
        </mxCell>

        <!-- End -->
        <mxCell id="end" value="Fim&#xa;Resposta Entregue" style="ellipse;whiteSpace=wrap;html=1;fillColor=#d5e8d4;strokeColor=#82b366;fontSize=12;fontStyle=1;" vertex="1" parent="1">
          <mxGeometry x="640" y="520" width="120" height="60" as="geometry" />
        </mxCell>

        <!-- Conexões principais -->
        <!-- Start -> Index -->
        <mxCell id="flow1" style="edgeStyle=orthogonalEdgeStyle;rounded=0;orthogonalLoop=1;jettySize=auto;html=1;entryX=0;entryY=0.5;entryDx=0;entryDy=0;strokeWidth=2;" edge="1" parent="1" source="start" target="index-process">
          <mxGeometry relative="1" as="geometry" />
        </mxCell>

        <!-- Index -> Parse URL -->
        <mxCell id="flow2" style="edgeStyle=orthogonalEdgeStyle;rounded=0;orthogonalLoop=1;jettySize=auto;html=1;entryX=0;entryY=0.5;entryDx=0;entryDy=0;strokeWidth=2;" edge="1" parent="1" source="index-process" target="parse-url">
          <mxGeometry relative="1" as="geometry" />
        </mxCell>

        <!-- Parse URL -> Match Route -->
        <mxCell id="flow3" style="edgeStyle=orthogonalEdgeStyle;rounded=0;orthogonalLoop=1;jettySize=auto;html=1;entryX=0;entryY=0.5;entryDx=0;entryDy=0;strokeWidth=2;" edge="1" parent="1" source="parse-url" target="match-route">
          <mxGeometry relative="1" as="geometry" />
        </mxCell>

        <!-- Match Route -> 404 (Não) -->
        <mxCell id="flow4" style="edgeStyle=orthogonalEdgeStyle;rounded=0;orthogonalLoop=1;jettySize=auto;html=1;entryX=0;entryY=0.5;entryDx=0;entryDy=0;strokeWidth=2;strokeColor=#cc0000;" edge="1" parent="1" source="match-route" target="error-404">
          <mxGeometry relative="1" as="geometry" />
        </mxCell>
        <mxCell id="flow4-label" value="NÃO" style="edgeLabel;html=1;align=center;verticalAlign=middle;resizable=0;points=[];fontSize=9;fontStyle=1;color=#cc0000;" vertex="1" connectable="0" parent="flow4">
          <mxGeometry x="-0.1" y="-1" relative="1" as="geometry">
            <mxPoint as="offset" />
          </mxGeometry>
        </mxCell>

        <!-- Match Route -> Load Controller (Sim) -->
        <mxCell id="flow5" style="edgeStyle=orthogonalEdgeStyle;rounded=0;orthogonalLoop=1;jettySize=auto;html=1;entryX=0.5;entryY=0;entryDx=0;entryDy=0;strokeWidth=2;strokeColor=#82b366;" edge="1" parent="1" source="match-route" target="load-controller">
          <mxGeometry relative="1" as="geometry" />
        </mxCell>
        <mxCell id="flow5-label" value="SIM" style="edgeLabel;html=1;align=center;verticalAlign=middle;resizable=0;points=[];fontSize=9;fontStyle=1;color=#82b366;" vertex="1" connectable="0" parent="flow5">
          <mxGeometry x="-0.1" y="-1" relative="1" as="geometry">
            <mxPoint as="offset" />
          </mxGeometry>
        </mxCell>

        <!-- Load Controller -> Execute Method -->
        <mxCell id="flow6" style="edgeStyle=orthogonalEdgeStyle;rounded=0;orthogonalLoop=1;jettySize=auto;html=1;entryX=1;entryY=0.5;entryDx=0;entryDy=0;strokeWidth=2;" edge="1" parent="1" source="load-controller" target="execute-method">
          <mxGeometry relative="1" as="geometry" />
        </mxCell>

        <!-- Execute Method -> Need Data -->
        <mxCell id="flow7" style="edgeStyle=orthogonalEdgeStyle;rounded=0;orthogonalLoop=1;jettySize=auto;html=1;entryX=1;entryY=0.5;entryDx=0;entryDy=0;strokeWidth=2;" edge="1" parent="1" source="execute-method" target="need-data">
          <mxGeometry relative="1" as="geometry" />
        </mxCell>

        <!-- Need Data -> Load Model (Sim) -->
        <mxCell id="flow8" style="edgeStyle=orthogonalEdgeStyle;rounded=0;orthogonalLoop=1;jettySize=auto;html=1;entryX=1;entryY=0.5;entryDx=0;entryDy=0;strokeWidth=2;strokeColor=#9673a6;" edge="1" parent="1" source="need-data" target="load-model">
          <mxGeometry relative="1" as="geometry" />
        </mxCell>
        <mxCell id="flow8-label" value="SIM" style="edgeLabel;html=1;align=center;verticalAlign=middle;resizable=0;points=[];fontSize=9;fontStyle=1;color=#9673a6;" vertex="1" connectable="0" parent="flow8">
          <mxGeometry x="-0.1" y="-1" relative="1" as="geometry">
            <mxPoint as="offset" />
          </mxGeometry>
        </mxCell>

        <!-- Load Model -> DB Query -->
        <mxCell id="flow9" style="edgeStyle=orthogonalEdgeStyle;rounded=0;orthogonalLoop=1;jettySize=auto;html=1;entryX=0.5;entryY=0;entryDx=0;entryDy=0;strokeWidth=2;" edge="1" parent="1" source="load-model" target="db-query">
          <mxGeometry relative="1" as="geometry" />
        </mxCell>

        <!-- DB Query -> Process Data -->
        <mxCell id="flow10" style="edgeStyle=orthogonalEdgeStyle;rounded=0;orthogonalLoop=1;jettySize=auto;html=1;entryX=0;entryY=0.5;entryDx=0;entryDy=0;strokeWidth=2;" edge="1" parent="1" source="db-query" target="process-data">
          <mxGeometry relative="1" as="geometry" />
        </mxCell>

        <!-- Process Data -> Prepare View -->
        <mxCell id="flow11" style="edgeStyle=orthogonalEdgeStyle;rounded=0;orthogonalLoop=1;jettySize=auto;html=1;entryX=0;entryY=0.5;entryDx=0;entryDy=0;strokeWidth=2;" edge="1" parent="1" source="process-data" target="prepare-view">
          <mxGeometry relative="1" as="geometry" />
        </mxCell>

        <!-- Need Data -> Prepare View (Não) -->
        <mxCell id="flow12" style="edgeStyle=orthogonalEdgeStyle;rounded=0;orthogonalLoop=1;jettySize=auto;html=1;entryX=0.5;entryY=0;entryDx=0;entryDy=0;strokeWidth=2;strokeColor=#666666;" edge="1" parent="1" source="need-data" target="prepare-view">
          <mxGeometry relative="1" as="geometry">
            <Array as="points">
              <mxPoint x="290" y="340" />
              <mxPoint x="500" y="340" />
            </Array>
          </mxGeometry>
        </mxCell>
        <mxCell id="flow12-label" value="NÃO" style="edgeLabel;html=1;align=center;verticalAlign=middle;resizable=0;points=[];fontSize=9;fontStyle=1;color=#666666;" vertex="1" connectable="0" parent="flow12">
          <mxGeometry x="-0.1" y="-1" relative="1" as="geometry">
            <mxPoint as="offset" />
          </mxGeometry>
        </mxCell>

        <!-- Prepare View -> Load View -->
        <mxCell id="flow13" style="edgeStyle=orthogonalEdgeStyle;rounded=0;orthogonalLoop=1;jettySize=auto;html=1;entryX=0;entryY=0.5;entryDx=0;entryDy=0;strokeWidth=2;" edge="1" parent="1" source="prepare-view" target="load-view">
          <mxGeometry relative="1" as="geometry" />
        </mxCell>

        <!-- Load View -> Render HTML -->
        <mxCell id="flow14" style="edgeStyle=orthogonalEdgeStyle;rounded=0;orthogonalLoop=1;jettySize=auto;html=1;entryX=0;entryY=0.5;entryDx=0;entryDy=0;strokeWidth=2;" edge="1" parent="1" source="load-view" target="render-html">
          <mxGeometry relative="1" as="geometry" />
        </mxCell>

        <!-- Render HTML -> Send Response -->
        <mxCell id="flow15" style="edgeStyle=orthogonalEdgeStyle;rounded=0;orthogonalLoop=1;jettySize=auto;html=1;entryX=0.5;entryY=0;entryDx=0;entryDy=0;strokeWidth=2;" edge="1" parent="1" source="render-html" target="send-response">
          <mxGeometry relative="1" as="geometry" />
        </mxCell>

        <!-- Send Response -> End -->
        <mxCell id="flow16" style="edgeStyle=orthogonalEdgeStyle;rounded=0;orthogonalLoop=1;jettySize=auto;html=1;entryX=1;entryY=0.5;entryDx=0;entryDy=0;strokeWidth=2;" edge="1" parent="1" source="send-response" target="end">
          <mxGeometry relative="1" as="geometry" />
        </mxCell>

        <!-- 404 -> End (error path) -->
        <mxCell id="flow17" style="edgeStyle=orthogonalEdgeStyle;rounded=0;orthogonalLoop=1;jettySize=auto;html=1;entryX=0.5;entryY=0;entryDx=0;entryDy=0;strokeWidth=2;strokeColor=#cc0000;" edge="1" parent="1" source="error-404" target="end">
          <mxGeometry relative="1" as="geometry">
            <Array as="points">
              <mxPoint x="880" y="200" />
              <mxPoint x="1000" y="200" />
              <mxPoint x="1000" y="480" />
              <mxPoint x="700" y="480" />
            </Array>
          </mxGeometry>
        </mxCell>

        <!-- Subprocessos laterais -->
        <!-- Migration Process -->
        <mxCell id="migration-title" value="Processo de Migração" style="text;html=1;strokeColor=none;fillColor=none;align=center;verticalAlign=middle;whiteSpace=wrap;rounded=0;fontSize=14;fontStyle=1;" vertex="1" parent="1">
          <mxGeometry x="40" y="650" width="200" height="30" as="geometry" />
        </mxCell>

        <mxCell id="migration-start" value="composer&#xa;make:migration" style="ellipse;whiteSpace=wrap;html=1;fillColor=#ffffcc;strokeColor=#d6b656;fontSize=10;" vertex="1" parent="1">
          <mxGeometry x="40" y="690" width="100" height="50" as="geometry" />
        </mxCell>

        <mxCell id="migration-create" value="Criar arquivo&#xa;de migração" style="rounded=1;whiteSpace=wrap;html=1;fillColor=#fff2cc;strokeColor=#d6b656;fontSize=10;" vertex="1" parent="1">
          <mxGeometry x="200" y="690" width="100" height="50" as="geometry" />
        </mxCell>

        <mxCell id="migration-edit" value="Editar arquivo&#xa;com comandos SQL" style="rounded=1;whiteSpace=wrap;html=1;fillColor=#fff2cc;strokeColor=#d6b656;fontSize=10;" vertex="1" parent="1">
          <mxGeometry x="360" y="690" width="100" height="50" as="geometry" />
        </mxCell>

        <mxCell id="migration-run" value="composer&#xa;migrate" style="ellipse;whiteSpace=wrap;html=1;fillColor=#ffffcc;strokeColor=#d6b656;fontSize=10;" vertex="1" parent="1">
          <mxGeometry x="520" y="690" width="100" height="50" as="geometry" />
        </mxCell>

        <mxCell id="migration-apply" value="Aplicar mudanças&#xa;no PostgreSQL" style="rounded=1;whiteSpace=wrap;html=1;fillColor=#fff2cc;strokeColor=#d6b656;fontSize=10;" vertex="1" parent="1">
          <mxGeometry x="680" y="690" width="100" height="50" as="geometry" />
        </mxCell>

        <!-- Migration connections -->
        <mxCell id="mig-flow1" style="edgeStyle=orthogonalEdgeStyle;rounded=0;orthogonalLoop=1;jettySize=auto;html=1;entryX=0;entryY=0.5;entryDx=0;entryDy=0;strokeWidth=1;" edge="1" parent="1" source="migration-start" target="migration-create">
          <mxGeometry relative="1" as="geometry" />
        </mxCell>

        <mxCell id="mig-flow2" style="edgeStyle=orthogonalEdgeStyle;rounded=0;orthogonalLoop=1;jettySize=auto;html=1;entryX=0;entryY=0.5;entryDx=0;entryDy=0;strokeWidth=1;" edge="1" parent="1" source="migration-create" target="migration-edit">
          <mxGeometry relative="1" as="geometry" />
        </mxCell>

        <mxCell id="mig-flow3" style="edgeStyle=orthogonalEdgeStyle;rounded=0;orthogonalLoop=1;jettySize=auto;html=1;entryX=0;entryY=0.5;entryDx=0;entryDy=0;strokeWidth=1;" edge="1" parent="1" source="migration-edit" target="migration-run">
          <mxGeometry relative="1" as="geometry" />
        </mxCell>

        <mxCell id="mig-flow4" style="edgeStyle=orthogonalEdgeStyle;rounded=0;orthogonalLoop=1;jettySize=auto;html=1;entryX=0;entryY=0.5;entryDx=0;entryDy=0;strokeWidth=1;" edge="1" parent="1" source="migration-run" target="migration-apply">
          <mxGeometry relative="1" as="geometry" />
        </mxCell>

        <!-- Route Definition Process -->
        <mxCell id="route-title" value="Processo de Definição de Rotas" style="text;html=1;strokeColor=none;fillColor=none;align=center;verticalAlign=middle;whiteSpace=wrap;rounded=0;fontSize=14;fontStyle=1;" vertex="1" parent="1">
          <mxGeometry x="40" y="780" width="250" height="30" as="geometry" />
        </mxCell>

        <mxCell id="route-define" value="Definir rota&#xa;em web.php/api.php" style="rounded=1;whiteSpace=wrap;html=1;fillColor=#fad9d5;strokeColor=#ae4132;fontSize=10;" vertex="1" parent="1">
          <mxGeometry x="40" y="820" width="120" height="50" as="geometry" />
        </mxCell>

        <mxCell id="route-controller" value="Especificar&#xa;Controller@method" style="rounded=1;whiteSpace=wrap;html=1;fillColor=#d5e8d4;strokeColor=#82b366;fontSize=10;" vertex="1" parent="1">
          <mxGeometry x="220" y="820" width="120" height="50" as="geometry" />
        </mxCell>

        <mxCell id="route-ready" value="Rota disponível&#xa;para uso" style="ellipse;whiteSpace=wrap;html=1;fillColor=#d4edda;strokeColor=#28a745;fontSize=10;" vertex="1" parent="1">
          <mxGeometry x="400" y="820" width="100" height="50" as="geometry" />
        </mxCell>

        <!-- Route connections -->
        <mxCell id="route-flow1" style="edgeStyle=orthogonalEdgeStyle;rounded=0;orthogonalLoop=1;jettySize=auto;html=1;entryX=0;entryY=0.5;entryDx=0;entryDy=0;strokeWidth=1;" edge="1" parent="1" source="route-define" target="route-controller">
          <mxGeometry relative="1" as="geometry" />
        </mxCell>

        <mxCell id="route-flow2" style="edgeStyle=orthogonalEdgeStyle;rounded=0;orthogonalLoop=1;jettySize=auto;html=1;entryX=0;entryY=0.5;entryDx=0;entryDy=0;strokeWidth=1;" edge="1" parent="1" source="route-controller" target="route-ready">
          <mxGeometry relative="1" as="geometry" />
        </mxCell>

        <!-- Legend -->
        <mxCell id="legend-bg" value="" style="rounded=1;whiteSpace=wrap;html=1;fillColor=#f9f9f9;strokeColor=#cccccc;" vertex="1" parent="1">
          <mxGeometry x="560" y="780" width="380" height="90" as="geometry" />
        </mxCell>
        <mxCell id="legend-title" value="Legenda de Processos:" style="text;html=1;strokeColor=none;fillColor=none;align=left;verticalAlign=middle;whiteSpace=wrap;rounded=0;fontSize=12;fontStyle=1;" vertex="1" parent="1">
          <mxGeometry x="580" y="790" width="150" height="20" as="geometry" />
        </mxCell>
        
        <mxCell id="legend-ellipse" value="" style="ellipse;whiteSpace=wrap;html=1;fillColor=#d5e8d4;strokeColor=#82b366;" vertex="1" parent="1">
          <mxGeometry x="580" y="815" width="30" height="20" as="geometry" />
        </mxCell>
        <mxCell id="legend-ellipse-text" value="Início/Fim de processo" style="text;html=1;strokeColor=none;fillColor=none;align=left;verticalAlign=middle;whiteSpace=wrap;rounded=0;fontSize=10;" vertex="1" parent="1">
          <mxGeometry x="620" y="815" width="120" height="20" as="geometry" />
        </mxCell>
        
        <mxCell id="legend-rect" value="" style="rounded=1;whiteSpace=wrap;html=1;fillColor=#ffe6cc;strokeColor=#d79b00;" vertex="1" parent="1">
          <mxGeometry x="580" y="840" width="30" height="20" as="geometry" />
        </mxCell>
        <mxCell id="legend-rect-text" value="Processamento/Ação" style="text;html=1;strokeColor=none;fillColor=none;align=left;verticalAlign=middle;whiteSpace=wrap;rounded=0;fontSize=10;" vertex="1" parent="1">
          <mxGeometry x="620" y="840" width="120" height="20" as="geometry" />
        </mxCell>
        
        <mxCell id="legend-diamond" value="" style="rhombus;whiteSpace=wrap;html=1;fillColor=#fff2cc;strokeColor=#d6b656;" vertex="1" parent="1">
          <mxGeometry x="760" y="815" width="30" height="20" as="geometry" />
        </mxCell>
        <mxCell id="legend-diamond-text" value="Decisão/Condição" style="text;html=1;strokeColor=none;fillColor=none;align=left;verticalAlign=middle;whiteSpace=wrap;rounded=0;fontSize=10;" vertex="1" parent="1">
          <mxGeometry x="800" y="815" width="120" height="20" as="geometry" />
        </mxCell>
        
        <mxCell id="legend-error" value="" style="rounded=1;whiteSpace=wrap;html=1;fillColor=#ffcccc;strokeColor=#cc0000;" vertex="1" parent="1">
          <mxGeometry x="760" y="840" width="30" height="20" as="geometry" />
        </mxCell>
        <mxCell id="legend-error-text" value="Erro/Exceção" style="text;html=1;strokeColor=none;fillColor=none;align=left;verticalAlign=middle;whiteSpace=wrap;rounded=0;fontSize=10;" vertex="1" parent="1">
          <mxGeometry x="800" y="840" width="120" height="20" as="geometry" />
        </mxCell>

      </root>
    </mxGraphModel>
  </diagram>
</mxfile>